/* XPM */
static char *c73ac9c4fa0349a4d79aca28cfae41f9qs1ukbKk88H5F3G9[] = {
/* columns rows colors chars-per-pixel */
"65 64 249 2 ",
"   c None",
".  c #000000",
"X  c #050403",
"o  c #190301",
"O  c #001503",
"+  c #00001B",
"@  c #2C0004",
"#  c #3D0003",
"$  c #350402",
"%  c #371A00",
"&  c #002509",
"*  c #332401",
"=  c #2B270E",
"-  c #000025",
";  c #00042A",
":  c #000037",
">  c #0C1D32",
",  c #3D0029",
"<  c #192427",
"1  c #252524",
"2  c #2B2B2B",
"3  c #272527",
"4  c #37342B",
"5  c #2A2B34",
"6  c #353537",
"7  c #263A2E",
"8  c #450805",
"9  c #4A1907",
"0  c #5C1400",
"q  c #5C0000",
"w  c #630000",
"e  c #7A1F00",
"r  c #6D0900",
"t  c #482B02",
"y  c #562705",
"u  c #593602",
"i  c #4A3911",
"p  c #682804",
"a  c #683A07",
"s  c #763000",
"d  c #400024",
"f  c #4E3631",
"g  c #575215",
"h  c #6A4504",
"j  c #784707",
"k  c #76550F",
"l  c #7A6208",
"z  c #74671C",
"x  c #48442A",
"c  c #504533",
"v  c #654F2F",
"b  c #656031",
"n  c #736C22",
"m  c #000C4E",
"M  c #393943",
"N  c #0B2C4C",
"B  c #46474A",
"V  c #4C4C54",
"C  c #4E4F5C",
"Z  c #53535B",
"A  c #595456",
"S  c #605C5B",
"D  c #485968",
"F  c #42577B",
"G  c #7E7C7A",
"H  c #870100",
"J  c #881500",
"K  c #B90016",
"L  c #AC1413",
"P  c #8B2400",
"I  c #922900",
"U  c #883800",
"Y  c #953C00",
"T  c #973802",
"R  c #890024",
"E  c #C10117",
"W  c #C31915",
"Q  c #C32615",
"!  c #D0052B",
"~  c #C9372F",
"^  c #E3373E",
"/  c #864904",
"(  c #964C00",
")  c #9B4C00",
"_  c #964500",
"`  c #885805",
"'  c #9B5D03",
"]  c #985602",
"[  c #975615",
"{  c #855714",
"}  c #A44900",
"|  c #A15401",
" . c #A45C06",
".. c #B85500",
"X. c #88660B",
"o. c #98670A",
"O. c #9B710C",
"+. c #AD6400",
"@. c #A86706",
"#. c #B46600",
"$. c #A8760A",
"%. c #BB7300",
"&. c #BC7D02",
"*. c #B37507",
"=. c #A46C18",
"-. c #A77A13",
";. c #B67918",
":. c #8E5328",
">. c #887526",
",. c #977822",
"<. c #896925",
"1. c #AD7F24",
"2. c #C17A02",
"3. c #D16F0B",
"4. c #D54629",
"5. c #DA4436",
"6. c #E4473F",
"7. c #E4593F",
"8. c #CB5420",
"9. c #87724D",
"0. c #A77E49",
"q. c #E96C44",
"w. c #DE5F56",
"e. c #BC8807",
"r. c #BC8B15",
"t. c #B68515",
"y. c #BF9000",
"u. c #998E2E",
"i. c #948B36",
"p. c #949132",
"a. c #BA8925",
"s. c #B9912B",
"d. c #A99A34",
"f. c #AB9029",
"g. c #B6A83B",
"h. c #C98406",
"j. c #D58A01",
"k. c #CE9504",
"l. c #DD9300",
"z. c #D89708",
"x. c #CA8D11",
"c. c #C98710",
"v. c #C79618",
"b. c #D49914",
"n. c #DB821B",
"m. c #E19601",
"M. c #E39E0B",
"N. c #E49904",
"B. c #EA9611",
"V. c #DAA519",
"C. c #D5A50F",
"Z. c #E5A20E",
"A. c #EBA709",
"S. c #F2A806",
"D. c #F6B40D",
"F. c #EBAC14",
"G. c #E4AB1D",
"H. c #E7A51A",
"J. c #E7B31D",
"K. c #ECB31D",
"L. c #EFB51C",
"P. c #F1B51B",
"I. c #F5BB1E",
"U. c #F7B917",
"Y. c #F3AF14",
"T. c #C2952B",
"R. c #C3972B",
"E. c #E28D2B",
"W. c #D8A629",
"Q. c #C7A836",
"!. c #D4B43A",
"~. c #DABC3E",
"^. c #DEB635",
"/. c #CFB437",
"(. c #E3AB26",
"). c #EBB827",
"_. c #F6BD20",
"`. c #F9BF20",
"'. c #F0B721",
"]. c #F1A624",
"[. c #FDC01C",
"{. c #F6C024",
"}. c #FBC222",
"|. c #FFC924",
" X c #F6C42C",
".X c #FDC82B",
"XX c #E9C63A",
"oX c #F5C631",
"OX c #F4C934",
"+X c #F7CC37",
"@X c #FFD234",
"#X c #F6D23C",
"$X c #FDD43D",
"%X c #FAD83A",
"&X c #EBD031",
"*X c #9C8542",
"=X c #B29758",
"-X c #B9AE44",
";X c #81827F",
":X c #AC9A61",
">X c #CDBC41",
",X c #C4B844",
"<X c #D4B04B",
"1X c #EFBD4B",
"2X c #F3BB4C",
"3X c #EBAF4D",
"4X c #E5A35B",
"5X c #DAC745",
"6X c #DED04B",
"7X c #D4C956",
"8X c #E4CB45",
"9X c #E3C540",
"0X c #E4D34A",
"qX c #EBD54A",
"wX c #EDDB4D",
"eX c #EAD144",
"rX c #F6D542",
"tX c #F6D845",
"yX c #FBDC43",
"uX c #F4DC4B",
"iX c #F1D748",
"pX c #E7D753",
"aX c #F7D756",
"sX c #F5E24D",
"dX c #FBE44C",
"fX c #FAE448",
"gX c #EFE156",
"hX c #F5E552",
"jX c #F8E751",
"kX c #F6EA54",
"lX c #FBEB54",
"zX c #F9EA58",
"xX c #FEF156",
"cX c #FEF358",
"vX c #FFF859",
"bX c #DDC67E",
"nX c #F9D276",
"mX c #F9ED6D",
"MX c #9E9289",
"NX c #D8CA86",
"BX c #E5D28B",
"VX c #FBEF8A",
"CX c #FCF28B",
"ZX c #F3EA98",
"AX c #FEF5A3",
"SX c #FFFCAB",
"DX c #FFF7A8",
"FX c #CECDCA",
"GX c #ECECEA",
/* pixels */
"                                                  2 2                                                                     3 2 2 2 ",
"                                                  2 6 6                                                                 5 6 2 4 2 ",
"                                                  3 V B 1 2                                                         5 1 6 Z 2 2 2 ",
"                                                  3 V Z B 4 4 6                                                   d V V Z C 2 2 2 ",
"                                                  2 V Z Z M > 3                                                 ,.*XC C Z B 2 3 2 ",
"                                                  2 V Z Z S B i  .                                            < 6XpXC C B 1 2     ",
"                                                  2 4 N D 7XOXz.|                                           =.6XcX7Xm 5 4 3 2 2   ",
"                                                  2 < v 0.uXdXoXx.+.                                      %.W.lXxX6X:Xx < 2 2     ",
"                                                    ; =.S.wXzXuX.Xc._                                   ( H.@XhXhXjXfXb - 4       ",
"                                                    ; g.xXhXhXhXlXa.J                                   H ~.jXhXhXkXwXb - 2       ",
"                                                    + Q.fXsXhXhXjX^.2.                                @.Q.qXzXsXgXjXrXb -         ",
"                                                    8 *.L.uXkXhXhX@XY.|                             _ ;.jXlXhXhXhXrXH.v           ",
"              ) T Y                                     k pXzXhXhX$X).:.    T T T T T Y Y Y           | wXjXhXhX@XW.7             ",
"              R.9X~.1.                                  { +XdXkXlXC...P ..3XBXbXbXbXBX<X^.>XH...P r R.9XhXhXzXlX(.o.              ",
"            ;.qXvXxX1X-.                                j k.OXaX8X<X=X=X2XVXDXDXSXSXSXCXvXlX#X(.R.2.eXcXjXhXhX8Xn                 ",
"          @.wXjXhXhXxXeXY                                 # (.`.H BXDXDXDXDXAXAXAXAXAXDXAXuXhXhXzX`.rXhXwXxXwXa                   ",
"          } qXzXhXhXjXhX5Xb.                                 .v.8XmXmXSXSXDXDXDXDXAXmXmXmXxXxXxXzXuXsXjXcX>X>.                    ",
"        a.Q.aXjXhXhXhXkXlX$X(.                              +.;.5X&XgXVXVXCXCXCXCXVXkX%X&X-X/.~.rXaXhXjX8X,.@                     ",
"      H ^.vXhXhXkXjXjXhXjXzXtXm.                          Y m.z.. k.{.wXsXsXfXfXfXsXkX$Xk.X . O.[.uXkXuX] e a                     ",
"     .>XhXhXhXhXhXhXhXhXjXjXhXiXm.                        :.J 9.GX;Xt.kXhXgXhXhXhXhXvXg.MXGX;Xo >.0XzXhX).=.#                     ",
"    } 8XxXuXhXhXhXhXjXkXhXhXjXkX$XW.                    +.>Xl m FXD g jXkXjXkXhXhXhXlXi.F FXG . m 8XlXhX.Xe.w                     ",
"    @.8XzXhXhXhXhXkXhXhXhXkXhXsXcX8X)                 P ;.lX-X. . . i.jXgXuXhXhXhXhXxXd.. . B A g 0XlXjX}.c.}                     ",
"I s.wXhXhXhXhXhXhXjXjXhXhXjXhXhXjXuX8X .                / wX#Xv.m v.).hX>.] (.uXkXsXkXXXT.: : <.H.jXtX.X`.M.2.a                   ",
"I W.vXhXhXjXhXkXhXhXhXkXhXhXjXhXhXxXhX .                v bXaX#Xg.eXfXkX>X!.#XjXlXjXhXfXrX-XQ.5XyX3XE.3._.I.H.t                   ",
"J T.zXhXhXhXkXhXhXhXhXkXhXkXhXhXhXhXeX@.+.              f w.BXkXvXjXwXwXsXwXwXwXwXwXhXkXkXlXxXjXaXq.! Q G.}.G.X                   ",
". i.vXlXkXhXhXhXhXkXkXsXhXhXjXhXkXrX`.{.x.H             f 6.aXkXjX(.j.[ v 7 x =.) 1.sXkXhXsXkX1X7.q.4.Q W H.J.X                   ",
"  g u.n /.cXlXlXhXhXhXhXhXjXhXhXzXrXU.`.I.b.)           f ^ 8XkXjXwXXXz.x , L K 3.G.hXhXhXhXlX1X^ 7.5.W E ].J..                   ",
"    . X p.wX6XgXjXkXhXhXhXkXhXhXsX#XI._.}.(.&.          f ~ 2XkXsXkXdX.X<.R 4.K E.$XhXhXhXhXkX1X6.7.~ W E H.J..                   ",
"          X X g.xXhXhXhXhXhXhXhX`.I._._._.I.|.c.Y         - ,XcXhXhXjXhX8.E q.E ^.zXhXhXhXhXkX2X6.~ Q Q E H.K.o                   ",
"              n >.n 5XvXlXkXuX X_._._._._._.|.-..         - 5XvXhXhXhXhXwX3X7.B.XXkXhXhXhXhXkXiX].8.E E 3.P.J.9                   ",
"                . . g.0X5XwX$XU._._._._.`.'.V.l           - d.6XhXhXhXhXzXaXE.$XyXhXhXjXjXhXaX@X`.n.3.3.M.I.K.]                   ",
"                    . . . C.`.'._._._.'.`.b..               - b hXjXhXjXuXhXjXhXhXjXhXsXhXhXOXU._.`.`.`._._.I.N.o.8               ",
"                          g h k {.}.'.[.v.u *               @ <.wXzXhXzXkXjXkXzXzXkXkX%X{.oX`._._._._._.`._._.I.X..               ",
"                            X . x.F.{.}.r.. t               w =.hXzXuXrXiXrXrXrXrXrXtX XU.I._._._._._._.I.I.`.`.X..               ",
"                                ) b.{.I.t.8                  .T.hXjXuX`.I.I.I.I.I.U.I._._._._._.`.I.I._. X_.`.`.X..               ",
"                              h G.[.(.O                   T ~.lXhXhXhXsX{.D.I.[.`.I.I.`._._._._.I.{.A.j.uX+XD.`.X..               ",
"                              p '.}.K.@.a                 e 5XcXhXhXhXkXrX%X#XH.Y._._._.`.I.I.{._.Y.).9XjXuX$X`.X..               ",
"                              o.J.}.I.S.e.%               # >XlXhXhXhXhXkXkXhX(.H.I._._.I.{.I.I._.j.XXlXhXhXjX`.X..               ",
"                          $ ;.}.{.I.I.{.Y.&..             $ >XxXhXhXhXhXhXhXsXkXXXm.I._.`._.'.{.`.} Q.lXhXhXsX}.X..               ",
"                          o k r.Z.I.}.Z.M.j.*.`         k Q.wXhX#XsXkXhXhXhXhXxX!.%.|.{.I._.}.G.;./.qXzXkXiXOXY.` .               ",
"                          O . # %.x.b.l.j.m.S.@.8     8 { uXvXuXY.OXuXhXhXjXhXlX!.%.v.J.`._.K.c.*.wXxXsXsXoXS.h.a .               ",
"                                u y j l.N.l.m.@.9       j 0XlXuXz.Y.+XhXhXhXhXhXyXA.X y.|.I.*.c.|.sXgXsX'.[.'.] t O               ",
"                                      h e.l.] j     H s.6XwXzXaXiXr.h.@XjXlXhXhXsXpXZX:X$.}.*.( c. X@X@X|.r.o.G.@.w               ",
"                                      X ' *.@       s.iXcXkXkXhXlX!.s.z.!.5XtXhXkXgXNX=Xy.{.V.@.0 G.G.e.r.-.r.}.z.#.              ",
"                                      . s / .     p 0XlXhXjXhXhXhXlX0XT P %..XsXxX6X. k.|.K.|.r.. '.t.. . v.|.J.Z.j.|             ",
"                                    % ( ] ) ) a s H 0XzXhXhXkXjXkXjXhXqXwX!.) { g z V.'.{.'.|.r.. . t.J.G.L.[._.}.C.$             ",
"                                    % | ' )  .e ,.!.wXhXhXhXhXhXhXhXhXzXlXwXQ.Q.f.e.|.`.I.{.[.V.t.-.V.}.}.{._.L.}.V..             ",
"                                    % ( ( ( @.q d.cXjXhXhXhXhXkXjXhXhXhXhXhXlXlXtXI._._.[.'.'.}.[.|.}.'.'._._.I.{.V..             ",
"                                      % o y @.8 u.jXhXhXhXhXhXhXhXkXhXjXhXiX_.{._.I.I.}.`.I._._.{.L.{.{._._._.I.|.V.X             ",
"                                          $ h X p.kXhXhXjXhXhXjXjXhXhXhXkXtXU.I._.`.`.I.I.{.I._.{.I.[.I._.I.`.I.r.l o             ",
"                                            & X u.dXhXhXhXhXhXjXhXhXhXsXhXrXI._._._.{.I.{.I._._.L.{.L.[._._.{._.k X *             ",
"                                              @ t.}.sXhXjXsXhXhXjXhXzXjXoXI._.`._._.I.{.I.{._.I.[.{.L.{._._.I.|.X.X               ",
"                                                ' O.).yXzXkXjXzXkX#XoXoXI.I._.Z.M.Z.Z.M.Z.M.P.{.{.{._._.{.}.L.X.                  ",
"                                                  @ z.OXuXuXuXuXuXoXU.U._._.L.l.j.m.l.l.l.l.F.P.J.I.I._.P.J.v..                   ",
"                                                  X h.Y.`.I.I.I.I._.{.I._.P.l.m.m.l.m.l.l.l.l.m.l.L.[.'.N.` .                     ",
"                                                    * &.S.{.|._.{.}.[.{.-.h h u h h /  .#.#.| %.l.M.h.' u # #                     ",
"                                                      j &.x.F.F.Y.V.V.V./ o X X . . 9 / _ s | h.m.N.h.;.X.-.-.                    ",
"                                                        = [ c.M.l.+.Y Y a a               X e.l.j.j.F.{.`.}.'.j                   ",
"                                                    X @.U.eXwXuX|.A.h.a                     t u u a &.S.}.x.%.`.O.$               ",
"                                                    d.XXyXxXjX#Xv.&.@.y                       X . X ' 2.v.` j v.X.                ",
"                                                  0 0XsXpXqXoXk.. . X                                 9 X . X .                   ",
"                                                  X z.k. .M.$.X *                                                                 ",
"                                                    ` / 0 ' h                                                                     ",
"                                                    X . O X                                                                       "
};
